<?xml version="1.0" encoding="utf-8"?>
<!-- Generator: Adobe Illustrator 20.0.0, SVG Export Plug-In . SVG Version: 6.00 Build 0)  -->
<svg version="1.1" id="Layer_1" xmlns="http://www.w3.org/2000/svg" xmlns:xlink="http://www.w3.org/1999/xlink" x="0px" y="0px"
	 viewBox="0 0 1080 1080" style="enable-background:new 0 0 1080 1080;" xml:space="preserve">
<style type="text/css">
	.st0{fill:#FFFFFF;}
</style>
<g>
	<path class="st0" d="M992.9,662.9c-0.8-0.2-1.6-0.3-2.5-0.5c-1.7,3.5-3.2,7.1-5,10.6c-18.3,37.1-36.2,74.3-55.1,111
		c-8.4,16.3-12.8,10.6-21.6-0.4c-1.3-1.6-1.9-3.9-2.7-5.9c-5.2-12.7-10.4-25.4-15.5-38.1c-6.3-15.6-5.6-16.2,8.4-24.8
		c20.6-12.7,33-31.1,33.5-55.6c0.1-6.2-3.1-14.6-7.7-18.4c-5.5-4.5-13.2-0.8-18.4,4.4c-7.2,7.2-15,14-21.1,22.1
		c-8.4,11.2-15.5,23.4-23.2,35.2c-0.8-0.3-1.5-0.5-2.3-0.8c4.8-15.8,7-33.1,14.9-47.1c21.1-37.5,39.3-76.3,54.5-116.4
		c11.8-31,21.8-62.7,21.3-96.5c-0.1-8-1.4-17-10.1-20.2c-9.3-3.5-15.7,3.1-19.7,10.2c-5.8,10.2-11.7,20.8-14.9,32
		c-20,68.9-39.3,138.1-58.6,207.2c-6.3,22.4-8.8,46.4-18.3,67.3c-11.9,26.4-28.9,50.5-44.5,75.1c-4.6,7.2-11.8,12.7-17.9,19
		c-0.8-0.5-1.7-1.1-2.5-1.6c0.4-4.8,0.2-9.8,1.2-14.5c7.7-35.8,15.4-71.6,23.8-107.2c1.9-8.3-0.1-10.9-8.1-12.4
		c-8-1.5-9.8,2.9-11.5,8.7c-9.5,32.4-16.4,65.7-31.5,96.3c-19.9,40.1-39.1,80.4-59.1,120.4c-3.6,7.1-9.7,12.9-14.7,19.3
		c-1-0.5-2-1-2.9-1.4c5.8-63.5,29-123,44.2-184.2c-10.3-3.8-20.2-7.4-30-11c-4.9-1.8-7.2-4.4-5.8-10.4c1.5-6.5,2.5-13.7,1.4-20.2
		c-1.2-6.6,0.2-16.2-9.8-17.8c-6.5-1.1-14.1,7.5-15.6,16.1c-0.1,0.6,0.1,1.3,0,1.9c-1.6,12.8,3.7,23.4,10.4,33.8
		c1.6,2.5,2.9,6.5,2,9c-6.2,18.2-11.4,37-19.9,54.2C612,865.1,580,915.3,538.6,959c-15,15.8-31,30.4-51,39.6
		c-11.1,5.1-19.1,0.6-20.6-11.5c-0.9-7-1.1-14.2-0.6-21.2c3.3-39.2,16.9-75.7,31.7-111.7c14.6-35.5,31.6-69.7,59.1-97.5
		c2.9-3,5.6-6.2,7.8-8.7c-8.4-5.3-16-8.7-22-14.1c-12.9-11.6-14-27.6-14.3-43.6c-0.1-7.7,3.2-11.9,10.9-14.8
		c29.1-10.7,59.1-19.9,83.6-40.3c13.8-11.5,26.1-24.1,27.9-43.3c1.5-16.1-9.3-25.9-25.2-23.4c-21.7,3.4-39.4,15.1-56.4,27.5
		c-26.6,19.3-47.9,43-58.7,75c-1.3,3.9-5.7,8-9.7,9.5c-36.9,14.1-74.2,27.3-111.1,41.4c-7.6,2.9-15,6.3-22.2,10.1
		c-0.3-1.3-0.6-2.7-1-4c-1.3-5.8,0-10.9,3.8-16.3c8.5-11.8,16.3-24.2,23.4-37c8.7-15.8,15.5-32.2,14.4-51c-0.8-13-10.3-21-22.9-18.1
		c-16.9,3.9-27.8,14.5-32.4,31.1c-5.3,19.2-2.7,38.6,0.9,57.7c1.3,6.5,0.8,11.5-2.8,17.2c-13,20.5-26.4,40.8-37.7,62.2
		c-1.9,3.5-3.6,7.1-5.2,10.7c-4.9,8.6-7.8,17.4-9,26.2c-2.9,12.5-3.7,25.5-1.6,39.1c2.7,17.5,15.3,29.4,32.7,26.3
		c9.9-1.7,20.1-6,28.3-11.8c10.5-7.5,19.2-17.6,30.1-27.9c0.3,12.6,1.2,24.7,0.8,36.7c-0.6,19.6-6.9,36.7-23.3,49.2
		c-19.7,14.9-33.7,12.5-46.5-8.2c-0.7-1.1-3-1.2-4.5-1.7c-0.6,1.8-2,3.8-1.7,5.4c2.1,10.3,11.7,18.4,22.6,19.4
		c18.2,1.8,40.1-11.4,49.4-29.6c9.9-19.2,9.6-39.7,7.8-60.5c-0.7-8-4.2-15.6,1.9-24.2c12.3-17.2,22.6-35.8,34.4-53.4
		c7.7-11.5,16-22.7,25.2-33c6.2-7.1,12.3-5.2,16.5,3.3c0.8,1.6,1.9,3,2.9,4.4c0.5-0.4,1-0.7,1.6-1.1c-1.6-6.6-3.6-13.1-10.7-15.9
		c-6.9-2.6-11.7,1.8-16,6.3c-3.1,3.2-6.2,6.5-8.6,10.2c-10.7,16.6-21.3,33.4-31.8,50.1c-6,9.6-12,19.2-18.6,29.6
		c-1.5-5.9-2.7-10.2-3.8-14.5c-3.4-14.6-6.7-29.2-10.3-43.7c-1.9-7.6-3.9-15.1-5.9-22.6c1.1-0.6,2.2-1.3,3.3-1.9
		c41.2-24,86.8-37.4,131.2-53.6c0.7-0.3,1.7,0.1,2.8,0.2c2.4,27.4,12.6,50.3,37.9,64.2c-8.9,9.3-18,17.3-25.3,26.8
		c-34.1,44.7-55.7,95.3-69.1,149.6c-4.8,19.3-6.4,38.9-3.8,58.9c2.4,18.5,19.7,29.8,36,21c14.9-8,29.5-17.5,41.9-28.8
		c38.6-35.2,69.5-76.7,95.1-122c10.1-17.8,18.6-36.5,26.8-55.2c6.7-15.3,11.9-31.2,18-47.4c5.3,1.9,10.4,3.8,15.7,5.8
		c-0.4,2.8-0.5,5-1,7c-8.6,32.8-18.2,65.3-25.6,98.3c-4.6,20.4-6.8,41.5-8.1,62.4c-0.4,6.1,4.6,14.7,9.8,18.3
		c7.1,4.8,12.8-2.8,17.8-7.8c1.3-1.3,2.5-2.8,3.4-4.4c15.2-28.4,30.8-56.7,45.5-85.4c8.3-16.4,15.1-33.6,22.5-50.5
		c1.7,8.3,1.8,16.2,2.1,24.1c0.3,7.4,3.8,13.1,10.4,16.5c6.2,3.3,11-0.4,14.8-4.6c9.1-10,18.5-20,26.5-30.9
		c8.1-11,14.6-23.1,21.8-34.7c0.5,0.2,0.9,0.4,1.4,0.6c-5.4,23.2-10.8,46.4-16.2,69.4c18.9,9.2,21,7.9,24.9-11.6
		c3.8-18.6,9.2-36.8,12.5-55.4c7.4-41.9,27-77.7,53.4-110.2c4.5-5.6,10.8-9.8,16.3-14.6c0.9,0.8,1.8,1.5,2.8,2.3
		c0,14.3-4.5,27.6-11.3,40.2c-6.9,12.7-14.9,25.3-29.6,29.4c-8.6,2.4-8.8,6.8-7.1,12.6c4.5,15.1,9.1,30.3,15,44.9
		c2.7,6.6,7.7,12.8,13,17.7c13.7,12.6,28.5,11.5,37-4.8c20.8-39.6,40-80,59.7-120.2C993.8,667.6,993,665,992.9,662.9z M940.4,427.6
		c10.2,14.6,5.6,29.7,2.9,44.3c-7.8,42.5-25.5,81.7-42.7,120.9c-6.6,15-14,29.7-21.8,46C876.9,612.5,928.9,434.2,940.4,427.6z
		 M551.8,633.2c13.1-19,29.4-35.3,48.5-48.1c7.8-5.3,17.3-8.7,26.5-11.2c10.7-2.8,19.2,5.8,18.2,17c-1.4,14.9-10.6,25.4-20.6,35.3
		c-16.1,15.9-36.9,23.5-57.2,32c-10.7,4.5-21.6,8.8-32.3,13.2c-1-1.2-2.1-2.3-3.1-3.5C538.4,656.3,544.3,644.2,551.8,633.2z
		 M360.9,629.2c5-10.7,14.5-16.4,25.5-19.6c6.1-1.8,10.6,1.7,9.8,8c-1,7.9-2.4,15.8-4.8,23.4c-6.6,20.8-18,39.2-31.3,56.9
		C355.1,674.8,350.2,651.8,360.9,629.2z M361.6,724.7c0.9,3.2,1.8,6.3,2.6,9.3c-5,2.8-9.9,5.9-14.7,9.2c0.6-0.9,1.1-1.8,1.7-2.7
		C354.2,735.8,357.4,731.1,361.6,724.7z M369.8,754.6c3.6,14.5,7.1,29.1,10.5,43.7c2.3,9.8,4.3,19.6,6.2,29.4
		c0.2,0.9-0.5,2.2-1.1,3.1c-11.9,17-25.3,32.2-45.7,39.1c-4.3,1.5-9.3,2.1-13.8,1.8c-4.1-0.3-7.4-2-9.9-5.3
		c-0.1-0.4-0.3-0.8-0.5-1.1c-2.5-5.8-4.6-11.5-6.2-17.3c-1.3-9.7,0.4-19.5,3.1-29.4c4.5-16.9,11.9-32.4,20.3-47.4
		c10.3-10.3,22.1-18.7,34.6-26.3C368.2,748.2,369,751.4,369.8,754.6z M665.2,735.8c-13.3-19.8-13.2-31.8,0.1-33
		C665.2,713,665.2,723.1,665.2,735.8z"/>
	<path class="st0" d="M372.9,518.3c2.7,8.9,9.6,10.2,16.6,4.2c4-3.4,7.7-7.2,10.9-11.4c8.3-11,16.3-22.2,26-35.4
		c-0.8,4.8-1.4,7.1-1.5,9.4c-1,15.7-2.2,31.3-2.8,47c-0.3,7.4,4.3,13.1,11,14.4c4.2,0.8,10.2-1.7,13.8-4.7c5.4-4.5,10-10.2,14-16.1
		c30.1-43.8,52.7-91.4,71.4-141.1c2.4-6.3,4.3-12.8,6.5-19.7c5.8,2.2,10.9,4.1,16.6,6.3c-1.5,6.6-2.6,12.7-4.2,18.7
		c-9.3,36.7-19.6,73.3-27.6,110.3c-3.2,14.7-3.7,30.9-1.4,45.8c2.3,15,13.7,16.7,23.8,4.8c7.2-8.4,14-17.6,18.9-27.5
		c17.2-34.8,33.5-70.1,50.1-105.2c1.4-2.9,2.7-5.9,4.7-10.1c1.7,3.3,2.6,4.9,3.4,6.6c5.1,10.9,10,12,19.1,4.1
		c3.5-3,6.7-6.5,9.5-10.1c8.2-10.9,16.2-22,25.8-35.2c-0.7,4.4-1.1,6.2-1.2,8c-1.1,16.3-3.1,32.6-2.7,48.8c0.1,5,6.2,11.3,11.2,14.1
		c2.8,1.5,10.2-1.8,13.3-5c7.7-8,14.9-16.7,20.8-26.1c12.2-19.7,23.4-40.1,36-61.8c-5.5,24.6-10.7,47.7-15.9,70.5
		c15.3,6.3,18.1,4.4,25.4-8.3c27.7-47.8,55.9-95.3,84.2-142.8c3.3-5.6,8-10.4,12.1-15.6c1.4,2.3,1.4,3.8,1.1,5.1
		c-8.7,39.1-18,78-25.9,117.3c-2.6,12.9-2.5,26.5-1.7,39.7c0.3,4.7,5.4,10.9,9.8,12.9c3.2,1.5,10.3-1.7,13.4-4.9
		c5.2-5.5,9.6-12.3,12.8-19.3c23.8-51.3,47.3-102.8,70.7-154.3c1.2-2.7,1.3-5.9,1.9-8.8c-1-0.3-2-0.7-2.9-1c-1.7,3.4-3.4,6.8-5,10.2
		c-23.1,50.3-46,100.7-69.3,150.9c-3.5,7.5-8.9,14.1-13.5,21.2c-1.3-0.5-2.7-0.9-4-1.4c1.6-11.4,2.6-22.9,4.9-34.2
		c6.8-33.5,14.4-66.8,21.1-100.2c2-10.2,2.6-20.9,2.6-31.4c0-3.9-3.1-9.5-6.3-11c-2.8-1.3-8.3,1.3-11.7,3.6
		c-3.4,2.3-6.2,6.1-8.4,9.8c-25.7,41.4-51.3,82.9-76.9,124.3c-1.3,2-2.6,4-3.9,6c4.9-27.5,11-54.1,18-80.5
		c4.2-15.8,7.4-32.6,15.4-46.5c22.8-39.4,42.6-80.2,57.5-123.1c8.8-25.4,17.1-51.2,13.9-78.9c-0.9-8-2.6-15.8-11-18.9
		c-8.6-3.2-13.7,3-17.3,9.2c-5.9,10.1-12.4,20.3-15.9,31.4c-14.5,46.6-28.3,93.3-41.7,140.2c-8.3,29-13.8,58.8-23.3,87.3
		c-12.9,38.8-33.1,74.3-56.2,108c-4.8,6.9-10.8,13-16.3,19.5c-0.9-0.5-1.8-1.1-2.7-1.6c-0.1-1.8-0.6-3.6-0.2-5.3
		c6.4-31.9,12.9-63.8,19.3-95.7c0.9-4.5,4.4-10-3.9-11.7c-6.4-1.3-13-2.5-14.7,6.3c-6.1,30.5-26.6,52.8-43.7,77
		c-2.3,3.3-5.8,5.7-8.7,8.5c4.6-25,12.1-48.2,25.8-68.9c6.6-10,8.6-10,18.8-4.5c-1.1-3-2.5-6.4-5.1-7.7c-7.7-3.9-15.7-3.4-23,1.4
		c-14.4,9.5-22.2,24-28.3,39.5c-5.7,14.5-10.4,29.3-17.1,43.3c-18.3,38.4-37.1,76.6-56.3,114.6c-3.5,7-9.6,12.7-14.6,19
		c-2-3-2.2-4.8-2-6.6c5.7-61.7,28.7-119.3,43.2-178.8c-12.5-4.7-24.8-9.3-36.6-13.7c0.9-7.5,2-13,2-18.5c0-5.8-0.3-11.8-1.8-17.3
		c-1-3.7-4.5-9.7-6.6-9.6c-4.3,0.3-9.2,3.2-12.5,6.4c-2.5,2.6-3.7,7.2-4.1,11.1c-1.4,12,2.7,22.4,9.4,32.3c2.2,3.2,3.4,8.7,2.3,12.3
		c-17.6,54.5-42.8,105.3-74.8,152.7c-4.3,6.4-10.1,11.8-15.3,17.7c-0.9-0.5-1.9-0.9-2.8-1.4c0.3-4.4,0-8.9,0.9-13.1
		c6.1-29.5,12.5-58.9,18.4-88.4c0.7-3.4,0.4-9-1.6-10.5c-6.5-4.9-15.4-1.3-17.2,6.7c-7.1,31.5-28.1,54.8-46.7,79.5
		c-1.4,1.9-3.6,3.2-5.5,4.7c4.7-24.5,12.1-47.2,25.3-67.5c2.3-3.5,5.4-7.4,9-8.8c2.5-1,6.5,2.1,9.8,3.4c-0.4-3.7-2.1-7-4.7-8.3
		c-7.8-3.7-15.8-3.3-22.9,1.8c-19.8,14.1-28.7,34.7-32.1,57.8C369.8,503,370.8,511.2,372.9,518.3z M811.8,210.3
		c11.8-44.7,23.7-89.3,35.9-133.9c2.3-8.3,5.9-16.3,9.7-24.1c3-6.1,7-5.8,9.7,0.6c5.9,13.8,4,28.4-0.1,41.6
		c-10.1,32.8-21.3,65.3-33.6,97.4c-6.6,17.3-16.3,33.4-24.7,50c-1.2,2.3-2.7,4.4-4,6.6c-0.7-0.3-1.3-0.5-2-0.8
		C805.7,235.3,808.5,222.8,811.8,210.3z M529.6,319.4c-0.2-2,3.3-4.4,5.1-6.7c1.4,2.2,3.9,4.4,4,6.7c0.5,7.7,0.2,15.5,0.2,23.2
		c-1.5,0.2-2.9,0.4-4.4,0.5C532.8,335.3,530.6,327.5,529.6,319.4z"/>
	<path class="st0" d="M321.2,345.9c0.4-7,1.9-12,8.6-15.6c5.6-3,10.7-7.5,15.3-11.9c17.8-16.9,32.8-35.8,37.1-60.8
		c3.1-18.2-10-28.8-27.3-22.6c-14.8,5.3-24.8,16.2-32.4,29.4c-11.4,19.7-17.3,41.3-20.1,63.6c-1,8.3-4.1,12.6-12,15
		c-42.5,13-85,26-127.4,39.5c-36.9,11.8-72.4,26.5-103.1,50.9c-28.3,22.5-36.2,56-20.4,88.4c1.3,2.6,3.9,4.6,5.9,6.8
		c-1.1-11.7-5.1-21.7-6.1-32c-2.2-21.1,7.8-37.8,22.7-51.7c23.4-21.8,51.7-35.8,81.1-46.4c46.8-16.9,94.3-31.8,141.5-47.6
		c4.6-1.5,9.1-3.2,14.4-5c-1.3,27-2.6,52.9-3.7,78.7c-2.3,51.9-4,103.9-15.1,154.9c-8,36.7-19.5,71.9-53.6,93.5
		c-25.1,15.9-52.5,24.1-81.6,13.5c-27.4-10-43.3-30.5-48.1-59.8c-5.7-34.7,3.1-63.8,30.8-86.2c4.8-3.9,10.6-6.6,15.9-9.9
		c-2.6-2.3-4.9-3.1-6.2-2.2c-8.3,5.4-17.4,10-24.1,17c-22.7,23.4-30,51.5-24.2,83.9c5,27.9,20,48,44.7,60
		c38,18.3,73.4,7.5,106.7-13.4c25.9-16.3,40.2-41.5,50.2-69.7c12.7-35.7,18.7-72.7,21.5-110.1C316,445.9,318.5,395.9,321.2,345.9z
		 M342.1,254.8c2.6-4,6.1-8,10.1-10.5c5.9-3.7,13.2-8.7,19.6-2.8c5.9,5.4,6.8,13.4,4.1,21.6c-6,18-16.2,33.3-29.7,46.4
		c-6.4,6.1-13.6,11.5-20.4,17.2c-0.8-0.7-1.5-1.4-2.3-2.1C326.6,300.6,328.6,276.2,342.1,254.8z"/>
	<path class="st0" d="M780.2,632.4c-6.8,1-10.2,11-7.4,17.6c2.5,6,6.8,7.7,12.7,5.2c6.4-2.7,11.4-12.5,7.6-17.6
		C790.7,634.3,784.3,631.8,780.2,632.4z"/>
</g>
</svg>
