<?xml version="1.0" encoding="utf-8"?>
<!-- Generator: Adobe Illustrator 20.0.0, SVG Export Plug-In . SVG Version: 6.00 Build 0)  -->
<svg version="1.1" id="Layer_1" xmlns="http://www.w3.org/2000/svg" xmlns:xlink="http://www.w3.org/1999/xlink" x="0px" y="0px"
	 viewBox="0 0 1080 1080" style="enable-background:new 0 0 1080 1080;" xml:space="preserve">
<g>
	<path d="M460.1,727.1C456.8,733,458.5,730.2,460.1,727.1L460.1,727.1z"/>
	<path d="M375.6,487.4c-31.7-19-66.7-31.3-102.1-41.2c-32.5-9.1-66.4-18-92.3-40.6c-3.4-3.4-6.5-7-9.2-10.9
		c-1.7-2.5-3.3-5.2-4.7-7.9c-0.3-0.6-0.6-1.1-0.8-1.7c0.3,0.2-1-4.1-1.1-4.3c-0.3-1.2-0.4-2.4-0.6-3.6c0-0.1,0.1-0.3,0.1-0.5
		c0.3-1.6,0.2-3.5,0.3-5.2c0.1-4.1-0.3,2.2-0.3,2.2c-0.9-1.5,1.7-8.6,2.1-10.3c0.2-0.9,0.5-1.8,0.7-2.8c1.5-4.4,3-8.8,4.7-13.2
		c0.3-0.7,1.1-2.2,1.4-3.1c0.6-1.3,1.3-2.6,1.9-3.8c1.3-2.4,2.6-4.8,4-7.2c0.1-0.2,0.2-0.4,0.4-0.6c0.1-0.2,0.2-0.3,0.3-0.5
		c0.2-0.2,0.3-0.5,0.5-0.7c2.6-3.8,5.1-7.6,7.9-11.2c0.4-0.5,1.6-2,2.5-3.2c0.7-0.8,1.3-1.5,1.6-1.8c3.9-4.3,7.9-8.5,12.1-12.5
		c1.7-1.7,3.6-3.2,5.3-4.9c-7.2,7.1-0.9,0.9,1.1-0.8c4.2-3.4,8.6-6.7,13.1-9.8c4.1-2.9,8.4-5.5,12.7-8.1c0.8-0.5,1.7-0.9,2.5-1.4
		c2.7-1.4,5.5-2.8,8.2-4.1c9.5-4.5,19.4-8.3,29.6-11.3c2.9-0.9,5.9-1.6,8.9-2.4c-5,1.4,1.8-0.4,3.7-0.7c6-1.1,12.1-2,18.3-2.5
		c13.9-1.2,27.9-0.8,41.6,1.9c11.7,3.1,23,8,32.4,15.7c1.2,1.3,2.3,2.6,3.3,4c-0.7,0.5-1.5,1-2.2,1.5c-1.2,0.8-2.4,1.5-3.6,2.3
		c-0.3,0.2-1.7,1.2-2.7,1.8c-0.6,0.3-1.2,0.7-1.4,0.8c-1.7,0.8-3.4,1.6-5.1,2.4c-3.2,1.4-6.6,2.6-9.9,3.5c-0.3,0.1-0.5,0.1-0.7,0.2
		c-0.2,0-0.5,0.1-1,0.1c-2.1,0.3-4.2,0.6-6.3,0.7c-3.7,0.1-7.6,0.4-11.4,0.2c-5.2-0.3-10.1-2.5-13.8-5.5c-2.8-2.3-5-3.2-9.1-3.6
		c-0.5,0-1-0.1-1.5-0.2c-0.2-0.1-1-0.2-1.2-0.3c-3-1-5.6,1-7.6,3c-6.7,6.7-10.6,16.5-12.7,25.6c-2.6,11.1-1.1,21.4,5.2,31
		c3.9,5.9,10.8,12.7,17.5,15.4c8.3,3.3,19,3.1,27.7,1.6c42.4-7.4,75.6-44.2,89.9-83.5c7.9-21.9,11.8-49.9-5.4-68.6
		c-11.7-12.8-26.1-19.7-42.8-23.6c-32.6-7.6-66.6-3.2-98.2,7.2c-62.3,20.6-113.4,68.8-145,125.4c-8.2,14.7-15.3,30.4-20.5,46.4
		c-6.9,21.3-12.6,43.6-9.9,66.2c4.1,35,35.2,59.4,65.3,72.9c32.6,14.6,68.1,21.3,101.4,34.2c33.8,13.1,66.2,30.3,93.1,54.8
		c10.8,10.6,20.5,22.3,28.6,35.1c3.6,5.7,6.9,11.7,9.9,17.8c1,2,1.9,4.1,2.8,6.2c0.2,0.5,0.4,0.8,0.5,1.1c1.5,3.9,2.7,7.8,3.8,11.8
		c2,7.3,3.2,14.6,4.3,22c0,0.3,0.1,0.8,0.2,1.2c0.1,1.5,0,3.2,0,4.6c0,3.8-0.1,7.6-0.4,11.4c0,0.5-0.1,1-0.1,1.4
		c-0.2,1.4-0.4,3.1-0.4,3c-0.6,3.8-1.5,7.5-2.4,11.2c0,0,0,0.1,0,0.1c-0.3,1-0.7,2-1,3c-0.5,1.4-1,2.9-1.6,4.3
		c-0.3,0.8-0.8,1.9-1.3,2.9c0.4-0.8,0.9-1.6,1.5-2.7c-1.7,3-3,6.2-4.7,9.2c-0.9,1.7-1.9,3.3-2.8,5c-0.2,0.4-0.4,0.7-0.5,0.9
		c-1.2,1.6-2.5,3.2-3.6,4.8c-1.1,1.5-2.2,2.9-3.4,4.4c0,0-0.1,0.1-0.1,0.1c-2.6,2.8-5.2,5.7-7.9,8.4c-1.1,1.1-2.2,2.2-3.4,3.2
		c-0.6,0.5-1.2,1.1-1.7,1.6c-2.9,2.6-2.3,2.1,1.7-1.4c-0.2,1.9-7.6,6.2-9.2,7.4c-3.1,2.4-6.3,4.7-9.6,6.9c-3.3,2.2-6.6,4.3-10,6.4
		c-1.3,0.8-7.4,5.4-1.3,0.8c-1.2,0.9-2.9,1.6-4.2,2.2c-7.7,4-15.6,7.7-23.7,10.9c-6.6,2.7-13.4,5.1-20.2,7.2
		c-3.8,1.2-7.6,2.3-11.4,3.4c-2.3,0.6-4.6,1.2-6.9,1.8c-0.7,0.2-3.7,0.9-4.4,1c-39.4,8.5-80.4,9.6-119.9,1.4
		c-23-5.5-45.6-13.9-66.1-25.7c-10.4-6-20.2-12.8-29.4-20.5c-9.4-7.9-17.6-14.4-24.8-21.9c-10.8-11.3-25.5,2.9-32.1,12.4
		c-8,11.7-18.5,32.3-10.3,46.5c8.5,14.7,18.1,27.1,30.7,38.5c11.2,10.1,23.5,19,36.6,26.4c29.5,16.9,62.7,25.5,96.4,28.4
		c69,5.8,143.6-13.1,200.6-52.9c32.2-22.5,58.5-52.7,77.3-87.1c17.9-32.8,30.1-72,28-109.7C474.2,577,432.6,521.6,375.6,487.4z
		 M392.7,271.2c-0.1,0.2-0.4,0.6-0.9,1.5c-0.1,0.1-0.2,0.3-0.3,0.4c-0.1,0.1-0.1,0.2-0.2,0.3C393.6,269.2,393.5,269.7,392.7,271.2z
		 M388,276.6c-0.1,0-0.1,0.1-0.2,0.1C391.9,271.9,390.2,274.9,388,276.6z M411.1,738.4c0.9-1.6,2-3.4,2.1-3.6
		C412.6,736.1,411.9,737.2,411.1,738.4z"/>
	<path d="M536.2,584.4c6.5,5,17.2-4.3,21.1-8.3c7.8-8,14.7-19.8,16.5-31c1-6.1,1.8-11.9,1.3-17.9c6.1-0.2,12.2-0.8,18.2-2.9
		c23.5-8.2,40.4-34.6,45.3-57.6c1.7-8.1,2.9-21.4-5.8-26.4c-0.3-0.2-0.5-0.3-0.8-0.4c-8.4-3.6-17.5,3.1-22.8,9
		c7.5-6.6,7-6.2-1.5,1.3c-1.7,1.8-3.3,3.7-4.8,5.6c-2,0.6-3.9,1.5-5.9,2c-6.4,1.8-12.5,3.4-18.5,5.3c0.1-1.4,0.2-2.9,0.3-4.3
		c0.7-13.6,1.1-27.3,1.4-41c0.3-12.1-0.4-27-9.1-36.3c-5.9-6.4-14.5-1.6-19.3,4c-13.7,15.8-26.2,34.3-27.6,55.8
		c-0.1,1.6,0.4,5,2.3,5.7c1.2,0.5,2.2,0.6,3.5,0.1c2.5-1,4.8-3.1,6.8-5.6c-0.7,5.6-1.1,11.3-1.5,17c-0.7,8.4-1.6,16.8-2.4,25.2
		c-1.8,0.6-3.7,1.2-5.6,1.6c-5.9,1.4-12.2,1.6-17.5,5.1c-7.3,4.9-12.4,13.4-13,22.2c-1.1,15,11.5,21.3,24.6,22.6
		c2.3,0.2,4.5,0.2,6.7,0.1c-0.1,1.5-0.3,2.9-0.4,4.4C526.3,554.1,523.8,574.8,536.2,584.4z"/>
	<path d="M602.2,727c0,0.1,0,0.1,0,0.2c2.6-6.7,2.1-5.8,1.2-3.6c-0.3,1.1-0.7,2.1-1.1,3.2C602.2,726.8,602.2,726.9,602.2,727z"/>
	<path d="M691.1,569.7c-0.6,0.8-1.3,1.6-1.9,2.3c-1.7,2.2-2.8,3.6,2.3-2.9c-0.1,0.1-0.2,0.3-0.3,0.4
		C691.1,569.6,691.1,569.6,691.1,569.7z"/>
	<path d="M1048.3,661.4c-26,12.9-51.8,26.7-76.6,41.7c-11.6,7-23.2,14.1-34.8,21c-5.8,3.5-11.7,6.9-17.5,10.3
		c-2.3,1.3-4.5,2.6-6.8,3.9c-0.5,0.3-1.1,0.6-1.4,0.8c-2,1.1-3.9,2.2-5.9,3.3c-23.8,13.1-48.2,25.3-73.5,35.3
		c-12.5,5-25.2,9.4-38.1,13.2c-5.8,1.7-11.7,3.2-17.5,4.7c-0.3,0.1-0.7,0.2-0.9,0.2c-1.6,0.4-3.3,0.7-4.9,1
		c-3.4,0.7-6.8,1.3-10.2,1.9c-25.7,4.3-52.3,6.1-78,1.1c-13.6-3.5-26.5-9-37.3-18.1c-4.3-4.7-7.6-9.7-10.9-15.3
		c-0.3-0.5-0.5-0.8-0.7-1.1c-0.1-0.3-0.1-0.6-0.2-0.9c-0.5-1.8-1.1-3.7-1.5-5.5c-0.4-1.9-0.7-3.8-1.1-5.6c-0.1-0.6-0.1-1-0.2-1.4
		c0-0.6-0.1-1.2-0.1-1.8c0-1.8,1.3-9.5,0.7-11.4c0.3-1.9,0.7-3.9,1.2-5.8c0.4-1.9,0.9-3.8,1.3-5.7c-0.2,0.4-0.3,0.8-0.5,1.3
		c0.2-0.5,0.4-1.1,0.6-1.6c0.3-1,0.7-2.2,1.1-3.2c0.9-2.9,1.8-5.8,2.8-8.6c2.8-8,5.9-15.9,9.1-23.8c1.5-3.6,3-7.1,4.5-10.6
		c-6.7,15.8,0.4-0.8,2.2-4.5c7.4-15.3,15.6-30,24.3-44.6c0.4-0.7,0.9-1.4,1.3-2.1c2.5-3.9,5-7.7,7.6-11.5c4.7-7,9.6-13.9,14.6-20.7
		c5-6.8,10.2-13.6,15.4-20.2c1.3-1.7,2.7-3.3,4-4.9c0.6-0.8,1.4-1.7,1.9-2.3c0.5-0.6,0.9-1.1,1.4-1.7c-0.3,0.4-0.7,0.8-0.9,1.2
		c1.9-2.2,3.8-4.4,5.7-6.6c22.4-25.8,46.4-50.1,71.5-73.2c4-3.7,8.1-7.4,12.1-11c1.2-1,2.3-2.1,3.5-3.1c0.4-0.3,0.8-0.7,1.2-1
		c7-6.1,14-12.1,21.2-18c15.4-12.8,31.1-25.2,47.1-37.1c15.4-11.4,28.1-32.1,31.5-51.1c1.9-10.5,3.2-33.9-13.5-32.9
		c-47,2.8-95.1,6.9-141.6-2.6c-2.9-0.7-5.7-1.4-8.6-2c-4.8-1.2-9.4-2.8-13.7-5c0.3-0.3,0.6-0.6,0.9-0.9c3.5-3.7,7.2-7.3,10.9-10.8
		c1-1,4.8-5.6,6.1-5.6c-1.1,1-2.3,2-3.4,3c1.2-1,2.4-2.1,3.6-3.1c7.6-6.4,15.5-12.5,23.6-18.1c8.2-5.7,16.5-11.3,25.1-16.5
		c1.6-1,3.2-1.9,4.8-2.8c0.7-0.4,3.5-1.9,4-2.2c4.6-2.5,9.4-4.9,14.1-7.2c9.2-4.4,18.5-8.6,27.9-12.3c0.1,0,0.1,0,0.2-0.1
		c0.5,1,1.4,1.5,2.8,1.3c16-2.4,29-12.1,37.7-25.6c2.5-3.9,13.9-27.7,0.9-27.1c-3.7,0.2-5.3,0.4-8.6-1c-0.1,0-2.7-0.5-1.6,0.1
		c-3.5-2-3.3-3.6-7.9-3.4c-7,0.4-14.3,2.3-21.1,3.8c-6.5,1.4-14.5,3.3-22.8,5.9c-6.9,2.2-13.8,4.6-20.5,7.3
		c-6,2.4-11.9,5.1-17.8,7.9c-2.8,1.4-5.7,2.8-8.3,4.5c6-3.9-0.2,0.1-1.3,0.7c-4.8,2.7-9.5,5.4-14.2,8.2c-12,7.4-23.4,15.6-34.1,24.7
		c-15.5,13.1-30,26.7-42.5,42.8c-17.4,22.4-31.6,54.5-26.8,83.4c6.2,37.5,48.6,44,79.7,47.6c11.2,1.3,22.4,1.9,33.5,2
		c-68.8,65.5-130.2,138.4-171.3,225.2c-28.1,59.3-74.9,164.7-2.2,210.6c26,16.4,59.9,18.8,89.7,16.6c38.1-2.8,75.8-12.8,111.3-26.7
		c81.9-32.2,153.1-84.8,228.3-129.3c7.4-4.4,14.7-15.1,18.4-22.4c3.8-7.5,6.6-15.2,7.7-23.5C1067.2,672.1,1063.2,653.9,1048.3,661.4
		z M727.7,338C727.7,338,727.7,338,727.7,338c-0.1,0.1-0.1,0.1-0.1,0.2c0,0,0,0,0,0C727.6,338.1,727.7,338,727.7,338z M727,338.9
		C726.9,338.9,726.9,338.9,727,338.9c-0.4,0.5-0.8,0.9-1.2,1.4C726.1,339.8,726.5,339.3,727,338.9z M775.1,795.8
		C771.6,796.6,774,796,775.1,795.8L775.1,795.8z"/>
</g>
</svg>
