<?xml version="1.0" encoding="utf-8"?>
<!-- Generator: Adobe Illustrator 20.0.0, SVG Export Plug-In . SVG Version: 6.00 Build 0)  -->
<svg version="1.1" id="Layer_1" xmlns="http://www.w3.org/2000/svg" xmlns:xlink="http://www.w3.org/1999/xlink" x="0px" y="0px"
	 viewBox="0 0 1080 1080" style="enable-background:new 0 0 1080 1080;" xml:space="preserve">
<style type="text/css">
	.st0{fill:#FFFFFF;}
</style>
<g>
	<path class="st0" d="M497.6,259.8c0.7-12.4,1.3-24.8,2-37.1c0.5-9.7,2.3-13.3,8.4-16.5c10.3-5.5,19.1-13.5,26.5-20.5
		c24.7-23.4,54-56.2,61.9-102c3-17.2-1.7-32.3-12.7-41.6c-11.2-9.4-27.1-11.3-43.8-5.3c-23,8.3-41.6,25-56.7,51
		c-17.2,29.5-28,63.8-33.1,104.6c-1.2,9.7-3.8,13-12,15.5c-62.3,19-132.9,40.5-202.2,62.7c-49.1,15.7-112.4,39.2-166.7,82.5
		c-48.6,38.8-62,97.2-35,152.5c2.1,4.3,5.3,7.5,8,10.2c1,1,2,1.9,2.7,2.8l20.5,23.4l-3-30.9c-1-10.4-3.2-19.7-5.4-28.7
		c-1.8-7.7-3.6-15-4.3-22.2c-2.7-26.5,8-50.6,32.9-73.7c31.5-29.3,71.3-52,125.3-71.6c51.7-18.7,104.9-36.2,156.3-53
		c22.3-7.3,45.3-14.9,67.9-22.4c3-1,6-2,9-3.1c-0.4,8.5-0.8,16.8-1.2,25.2c-1.4,29.2-2.7,56.8-4,84.9l-0.6,13.7
		c-3.3,76.1-6.7,154.8-23.2,230.4c-11.2,51.1-27.5,108.4-80.6,142c-43.4,27.5-82.9,34.2-120.7,20.5c-39.2-14.3-62.7-43.5-69.9-87
		c-8.9-53.9,6-95.6,45.4-127.3c4.6-3.7,10-6.8,15.7-10c2.8-1.6,5.6-3.2,8.4-4.9l11.5-7l-10.1-9c-7.6-6.8-15.9-8.4-22-4.4
		c-3.2,2.1-6.5,4.1-10,6.3c-10.4,6.4-21.2,13-30,22.1c-37.3,38.5-51.1,86.2-41.1,141.8c8.6,47.6,34.3,82.1,76.5,102.4
		c21.8,10.5,44.3,15.8,67.3,15.8c8.7,0,17.4-0.7,26.2-2.2c27-4.6,54.9-16.2,85.4-35.4c37.5-23.6,64.1-60.4,83.7-115.7
		c18.2-51.3,29.5-109.3,34.6-177.4C490.4,393.9,494,325.7,497.6,259.8z M531.2,83c3.6-5.7,8.3-10.6,12.9-13.5l1-0.6
		c7.2-4.6,11.3-6.6,14.1-6.6c1.5,0,2.7,0.6,3.9,1.6c7.4,6.7,6.1,16.6,3.8,23.7c-8.5,25.9-23.5,49.3-44.6,69.5
		c-5.3,5.1-11,9.8-16.9,14.6C509.5,140,514.2,109.9,531.2,83z"/>
	<path class="st0" d="M1003.9,707.6l-0.7,1.5c-45.4,92.8-96.6,168.7-156.4,231.8c-20.7,21.8-46.1,46.1-77.9,60.6
		c-5.5,2.5-10.2,3.1-13,1.5c-2.8-1.6-4.8-5.8-5.6-11.9c-1.4-11-1.7-21.6-0.8-31.6c5.2-62.5,27.3-120.3,49.5-174.2
		c21.6-52.3,47.6-106.9,91.6-151.4c3.5-3.5,6.6-7.1,9.4-10.4c1.2-1.3,2.3-2.6,3.3-3.8l7.9-8.8l-10.1-6.3c-4.5-2.8-8.8-5.3-12.9-7.7
		c-8.1-4.6-15-8.6-20.6-13.6c-17.1-15.4-18.9-37.2-19.4-62c-0.1-6.8,1.4-10.5,10.8-13.9c5.9-2.2,11.9-4.3,17.7-6.4
		c40.6-14.7,82.6-29.8,117.8-59.2c23-19.1,44.7-41.6,47.8-75.5c1.4-15.3-3-28.7-12.6-37.6c-9.6-9-23.4-12.7-39-10.3
		c-36.7,5.7-66.5,25.5-93.9,45.4c-49,35.5-80.6,76.1-96.7,124c-1,3.1-5.7,7.5-9.4,8.9c-28.5,10.9-57.7,21.6-85.9,32
		c-29.7,10.9-60.3,22.2-90.4,33.7c-7.9,3-15.8,6.4-23.4,10c-0.7-5.3,0.8-10.1,4.8-15.7c13.7-19.1,26.4-39.2,37.7-59.7
		c13-23.7,26.1-52.5,24.1-86.3c-0.8-13.5-6.4-24.8-15.8-31.8c-9-6.7-20.6-8.8-32.7-6c-30.1,7-50.4,26.5-58.7,56.5
		c-9.4,33.8-4.2,67.3,1.3,96.1c1.7,8.7,0.9,13.8-3,20.1c-3.6,5.7-7.2,11.3-10.8,17c-16.9,26.5-34.4,54-49.4,82.3
		c-24.2,45.6-32.5,85.9-26.2,126.8c3.3,21.5,14.8,38.3,31.5,46.2c0.2,0.2,0.4,0.3,0.6,0.4l11.8,9.8l1.7-6c5.7,0.8,11.7,0.7,17.9-0.4
		c17.2-3,34.6-10.3,49-20.5c11.9-8.4,22.1-18.6,32.8-29.3c0.5,12,0.9,23.4,0.5,34.8c-1.1,31.8-11.5,54.2-33,70.4
		c-13.6,10.3-24.5,14.5-33.5,12.8c-8.8-1.6-17.2-9.2-25.7-23c-2.9-4.8-7.9-5.9-10.9-6.5c-0.5-0.1-1.2-0.3-1.4-0.3l-9.6-3.4l-3.2,9.7
		c-0.1,0.4-0.5,1.1-0.7,1.7c-1.3,2.8-3.2,7-2.2,11.9c4.1,20.3,22.9,36.6,44.7,38.7c2,0.2,4.1,0.3,6.2,0.3
		c31.4,0,66.5-22.1,82.1-52.6c17.6-34.3,16.1-70.3,13.4-101.4c-0.3-3.2-0.8-6.3-1.3-9.2c-1.6-9.8-2.3-15.6,2.5-22.4
		c11.5-16,22-32.9,32.1-49.3c7.3-11.8,14.9-24.1,22.7-35.8c13.2-19.7,26-36.6,39.1-51.5c2.6-2.9,4.2-3.7,4.5-3.7c0,0,0,0,0,0
		c0.4,0,2.6,1.6,5.2,6.8c1.2,2.4,2.7,4.5,3.9,6.3c0.5,0.6,0.9,1.3,1.3,1.9l5.6,8.4l16.5-11.3l-1.6-6.7c-2.3-9.6-6.1-25.7-23.2-32.2
		c-17.7-6.8-29.7,5.7-36.2,12.4c-5.2,5.3-10.6,11.1-14.9,17.7c-14.1,21.8-28.1,44-41.7,65.6l-8.8,14c-5.7,9-11.3,18-17.2,27.4
		c0-0.1,0-0.2-0.1-0.3c-2.1-8.8-4.1-17.6-6.1-26.3c-3.3-14.1-6.7-28.8-10.2-43.1c-2-8.3-4.2-16.7-6.4-24.9
		c49.8-28.5,104.9-47.8,158.3-66.5c12.4-4.4,25.2-8.8,37.9-13.4c5.8,41.4,23.2,71.6,53,91.9c-1.6,1.6-3.1,3.1-4.7,4.7
		c-9.9,9.8-19.2,19.1-27.4,29.9c-51.6,67.6-88,146.5-111.5,241.1c-8.4,33.8-10.4,65.6-6.2,97.2c2.4,18.4,12.9,34.1,28.1,41.8
		c6.5,3.3,13.6,5,20.7,5c7.8,0,15.6-2,23-5.9c27.2-14.6,50.2-30.4,68.6-47.2c58.3-53.2,108.3-117.3,152.9-196
		c16.9-29.9,31.1-61.3,43-88.4l21.4-48.8L1003.9,707.6z M957.5,362.7c9.9-6.6,23-12.1,39-16.4c4.4-1.2,8.3-0.4,11.3,2.2
		c3.7,3.1,5.5,8.4,5,14.2c-1.9,20.8-15.7,36-29.7,49.8c-21.6,21.3-49,32.7-78,44.6c-3.2,1.3-6.4,2.7-9.6,4
		c-11.7,4.9-23.6,9.7-35.2,14.4c0,0-0.1,0-0.1,0c0.4-0.8,0.8-1.6,1.3-2.3c6.7-12.5,13.7-25.3,21.7-36.9v0
		C903.3,407.1,928.4,382.3,957.5,362.7z M617.6,397.9c0.3,0,0.6,0,0.7,0.1c0.1,0.2,0.2,0.9,0.1,2.1c-1.8,14.4-4.1,25.7-7.2,35.3
		c-7,22.2-18,44-35,68.9c-5.1-27-7.2-54.3,5.1-80.3v0c5.9-12.4,17-20.9,34.2-25.8C616.4,398,617.1,397.9,617.6,397.9z M505,722.9
		c5.3-19.8,13.3-39.5,25.3-62c12.4-13.1,27.5-25.4,46.9-38c5.1,20.3,10.2,41.7,16.2,67.4c3.4,14.7,6.5,29.8,9.4,44.1
		c-16.8,24-36.6,47.6-67.2,57.8c-5.6,1.9-12,2.7-18.1,2.3c-3.4-0.2-7.2-1.3-10.6-8C496,765.2,499.6,743.3,505,722.9z"/>
</g>
</svg>
